Patient4_TMGait_0pt4_02_right_13_EMG.mot
version=1
nRows=30
nColumns=33
inDegrees=no
endheader
time	1LAddLong	2LGlutMax	3LGlutMed	4LIliopsoas	5LSemiMemb	6LBicFemLong	7LRecFem	8LVastMed	9LVastLat	10LGasMed	11LTibAnt	12lTibPost	13LPeroneusLong	14LSol	15LExtDigLong	16LFlexDigLong	17RAddLong	18RGlutMax	19RGlutMed	20RIliopsoas	21RSemiMemb	22RBicFemLong	23RRecFem	24RVastMed	25RVastLat	26RGasMed	27RTibAnt	28RTibPost	29RPeroneusLong	30RSol	31RExtDigLong	32RFlexDigLong
17.63	-0.002899	0.096893	0.10452	0.005646	0.065155	-0.35294	-0.010529	0.043945	-0.14358	0.019836	-0.039215	0.020294	0.027618	0.068665	-0.38223	-0.016785	-0.060577	-0.17044	-0.16373	-0.009155	0.059204	-0.14008	-0.24216	0.029602	0.030212	0.006409	0.78354	-0.002289	0.24841	-0.058746	-0.007477	-0.006561
17.631	0.015564	0.10635	0.016479	0.013733	0.046692	-0.20004	0.018921	0.020905	-0.10407	0.022736	0.001526	0.014496	0.019989	-0.007324	-0.17609	-0.014496	-0.038605	-0.14618	-0.090027	0.015717	0.039673	-0.033417	-0.2327	0.039673	0.023651	-0.006256	0.61447	-0.004425	0.30655	-0.036469	-0.000458	-0.016479
17.632	0.026398	0.10208	0.003204	0.019379	0.06073	-0.059052	-0.092926	0.018311	0.06012	0.013123	-0.016022	0.022278	0.002899	-0.026703	0.006409	-0.007935	0.003357	-0.16388	-0.12833	0.046692	0.019379	0.046234	-0.21942	0.01297	0.010529	-0.011749	0.29541	-0.001526	0.22522	0.035858	-0.00061	-0.01236
17.633	0.010223	0.1265	0.048981	0.019684	0.037231	-0.048676	-0.13763	-0.004425	0.2179	0.004883	-0.03067	0.019836	-0.004883	-0.061035	0.072479	0.001221	0.0383	-0.12253	-0.21057	0.043488	0.016785	0.11765	-0.31082	0.053253	0.014191	-0.002899	-0.10086	-0.00351	0.15243	0.037537	-0.006104	-0.012207
17.634	0.005951	0.12207	0.052948	0.013275	0.050964	-0.11215	-0.095673	-0.015869	0.34256	0.013123	-0.027924	0.007935	-0.014648	-0.060577	0.075989	0.003662	0.058899	-0.11704	-0.19852	0.044556	0.02121	0.18005	-0.2478	0.046997	0.003662	-0.007935	-0.7898	-0.002136	-0.039063	0.025787	0.000305	-0.01236
17.635	0.002289	0.067444	0.027161	0.014038	0.069122	-0.073853	-0.10025	-0.036163	0.50522	0.035858	0.000763	0.019684	-0.021667	-0.048218	0.06073	-0.008545	0.070343	-0.091858	0.12436	0.016937	0.056152	0.22385	-0.24933	0.044403	0.010986	-0.017853	-0.65338	-0.003052	-0.22156	0.032043	-0.000153	-0.014954
17.636	0.000458	0.007782	-0.006256	0.000153	0.047913	-0.044403	-0.076141	-0.023651	0.64529	0.016632	0.00473	0.02533	-0.008392	-0.03418	0.032501	-0.006256	0.079193	-0.078735	0.23438	-0.062866	0.043335	0.19379	-0.24414	0.048981	-0.007324	-0.019531	-0.46081	0.000916	-0.13138	-0.038757	0.00061	-0.023651
17.637	-0.003967	0.041199	0.000458	0.000916	0.053253	0.056458	-0.011902	-0.018005	0.7547	0.018005	0.001831	0.024109	-0.017548	-0.012207	0.062103	-0.000458	0.081787	-0.054932	0.1889	-0.083313	0.03891	0.079651	-0.2565	0.035095	0.003967	-0.007019	-0.23987	-0.001678	0.035858	-0.13031	-0.001831	-0.02243
17.638	0.002747	0.018463	0.010529	-0.000153	0.030212	0.059814	0.042267	-0.018005	0.48035	0.00412	0.007324	0.023651	-0.003052	-0.011749	0.070801	-0.000763	0.072327	-0.035553	0.042419	-0.10193	0.016785	-0.02182	-0.29419	0.007629	0.001526	-0.005188	-0.086212	-0.001678	0.097351	-0.18143	0.000763	-0.0177
17.639	0.01358	-0.10147	-0.003662	-0.005951	0.007172	-0.081024	0.06546	-0.021057	0.002899	0.022888	0.010223	0.02594	0.061646	0.005493	0.034332	0.010376	0.066223	-0.029449	-0.055695	-0.066528	0.004425	-0.062256	-0.33463	0.018005	-0.006104	-0.002136	0.1265	0.007935	0.024567	-0.21759	0.000763	-0.026245
17.64	0.014191	-0.12711	-0.087585	0	0.0177	0.026855	0.037842	-0.036621	-0.38071	0.015259	0.007019	0.039825	0.023193	0.014038	0.00412	0.004578	0.053406	-0.029907	-0.40054	-0.032349	-0.00351	-0.013428	-0.27618	0.020142	-0.031586	-0.001373	0.29419	-0.003357	-0.13001	-0.13046	-0.00061	-0.024414
17.641	0.020142	-0.086975	-0.1413	0.007629	0.005035	0.17944	0.10361	-0.037537	-0.42664	0.024109	0.012512	0.03006	-0.055389	0.019073	0.002594	0.013123	0.018921	-0.045319	-0.34454	-0.081177	-0.032654	0.029297	-0.271	0.022888	-0.044861	-0.001526	0.21912	-0.003204	-0.14679	-0.00473	0.001526	-0.025787
17.642	-0.007019	-0.019379	-0.1532	0.011139	-0.044861	0.12512	0.0737	-0.020294	-0.43808	0.023346	0.004425	0.0383	-0.0383	0.023193	0.003967	0.010376	-0.002136	0.053558	-0.33768	-0.096283	0.023651	0.09079	-0.27756	0.01358	-0.033569	-0.002594	0.062561	-0.001221	-0.16678	0.1442	-0.004272	-0.017395
17.643	-0.023193	-0.070496	-0.098114	0.001526	-0.071869	0.10773	0.08728	-0.012207	-0.52948	0.021973	0.006866	0.041199	-0.0354	0.018311	0.014343	0.015564	-0.001831	0.021362	-0.3363	0.040741	0.019836	0.052185	-0.31815	0.007019	-0.031738	0.015259	0.00946	-0.001984	-0.20767	0.17166	-0.004272	-0.01358
17.644	-0.025177	-0.080414	-0.010223	-0.005646	-0.080109	0.20554	0.084076	0.017395	-0.73486	0.030975	0.006714	0.039215	-0.038147	0.021973	0.016479	0.01709	-0.007477	-0.076904	-0.084534	0.1619	0.023346	0.02121	-0.3096	-0.008545	-0.054626	0.008698	0.015564	0.000305	-0.19272	0.14175	-0.001984	-0.007935
17.645	-0.017853	-0.081482	-0.037842	-0.003967	-0.036469	0.25772	0.090179	0.014954	-0.64972	0.024719	0.010834	0.042419	0.004272	0.034637	0.014343	0.032349	-0.015869	-0.047913	-0.18707	0.18249	0.014343	0.095062	-0.31784	-0.011139	-0.052185	-0.003052	0.07309	-0.002594	-0.20798	0.031433	-0.00061	-0.011902
17.646	-0.001373	-0.017395	0.013123	0.00885	0.000916	0.28915	0.10544	-0.009155	-0.34058	0.022583	0.057373	0.039978	-0.003357	0.0354	-0.025787	0.035248	-0.014038	-0.085754	-0.24338	0.15411	0.031738	0.12207	-0.30212	0.006104	-0.043945	-0.007935	0.1294	-0.002136	-0.046082	-0.068817	0.005646	-0.02121
17.647	0.010681	-0.056305	0.022583	0.034637	0.069427	0.34302	0.19089	-0.001984	-0.14267	0.039825	0.057678	0.040894	-0.013885	0.076599	-0.070038	0.038757	0.008698	-0.03952	-0.095978	0.10773	0.020447	0.10895	-0.3064	-0.01358	-0.046692	0.009613	0.09552	0.000153	0.26169	-0.038147	-0.004272	-0.017395
17.648	0.014343	-0.003357	-0.087738	0.002594	0.037689	0.36011	0.12772	0.002747	-0.048218	0.042725	0.11032	0.03418	-0.017853	0.081329	-0.1088	0.040894	0.025177	-0.056305	-0.19791	0.11627	0.005035	0.073395	-0.3418	-0.026703	-0.057983	-0.003815	0.053558	-0.010986	0.22583	-0.048218	-0.005646	-0.01297
17.649	0.023956	0.004272	-0.14999	0.001221	0.037842	0.39948	0.070648	-0.001526	0.072327	0.041809	0.14801	0.036316	-0.046082	0.080109	-0.11826	0.039215	0.02655	-0.051575	-0.17502	0.036469	-0.003967	0.14557	-0.31708	-0.062714	-0.046234	-0.031281	0.059509	-0.008698	-0.070801	0.022278	-0.00061	-0.015869
17.65	0.024109	0.037079	-0.11917	-0.002899	0.032349	0.42252	0.15793	-0.000305	0.12299	0.033722	0.048065	0.042114	0.032196	0.11169	0.002747	0.050507	0.014954	-0.097198	-0.13229	-0.022888	0.018005	0.17883	-0.29007	-0.05661	-0.037079	-0.055237	0.078583	-0.005341	-0.10849	0.084991	-0.003052	-0.021515
17.651	0.019531	0.062866	0.049133	0.009766	0.020294	0.39414	0.23804	0.009003	0.1265	0.000305	-0.10147	0.040131	0.076599	0.10773	0.11536	0.04364	0.015411	-0.033112	-0.097504	-0.080261	0.016937	0.15182	-0.3186	-0.046234	-0.044403	-0.054169	0.066528	-0.012512	-0.11276	0.13031	-0.007324	-0.021667
17.652	0.010223	0.042267	0.074768	0.02243	0.024719	0.35797	0.26032	0.015106	0.061951	0.001984	-0.16144	0.046082	0.059814	0.14969	0.21652	0.032043	0.001373	-0.092316	-0.11383	-0.061798	0.032043	0.08667	-0.33112	-0.044403	-0.027161	-0.043488	0.043182	0.003815	-0.11124	0.29419	-0.00412	-0.024567
17.653	0.00061	0.065155	0.049286	0.007782	-0.012054	-0.029602	0.18158	-0.002289	0.012817	0.001068	0.023041	0.044098	0.026703	0.15533	0.23285	0.037384	-0.033264	-0.11108	-0.11704	-0.020599	0.027466	0.003662	-0.34821	0.02533	-0.005798	-0.003052	0.050964	0.011749	-0.024261	0.14557	-0.004578	-0.029755
17.654	-0.00885	0.10727	0.10941	-0.007019	-0.077972	-0.1268	0.085297	-0.008392	-0.10239	0.015564	0.14603	0.047607	-0.00885	0.19409	0.20477	0.030823	-0.10422	-0.088654	-0.084076	-0.049133	-0.015259	-0.017548	-0.37781	0.018768	0.003967	0.019379	0.068054	0.007477	0.033569	-0.13901	-0.011139	-0.035553
17.655	-0.015564	0.1236	0.031433	0.012512	-0.11322	0.068054	0.067902	0.011902	-0.1593	0.009613	0.11673	0.059204	0.053101	0.19257	-0.001068	0.016022	-0.090027	-0.10483	-0.10529	-0.13275	-0.034332	-0.051117	-0.36209	-0.002899	-0.018768	0.03006	0.08667	0.006714	0.11124	-0.29053	-0.006561	-0.037537
17.656	-0.015564	0.063782	-0.043182	0.032349	-0.12161	0.2153	-0.036469	0.019073	-0.23941	0.003052	-0.054474	0.058746	0.12589	0.14099	-0.13489	0.011444	-0.033722	-0.020142	-0.10971	-0.21011	-0.04425	-0.020447	-0.38147	-0.023956	-0.011444	0.023041	0.096283	0.005341	0.079498	-0.41184	-0.006714	-0.03952
17.657	-0.024719	0.041656	-0.086212	0.02182	-0.005798	0.14297	-0.085602	0.00946	-0.24857	0	-0.17761	0.063019	0.13367	0.15396	-0.21698	0.007935	-0.010071	-0.048065	-0.037231	-0.18799	-0.020599	0.030823	-0.41107	0.069885	-0.007935	0.007477	0.058441	-0.057068	0.058594	-0.26245	-0.006561	-0.043335
17.658	-0.027161	0.059204	-0.071259	0.023193	0.050659	-0.40878	-0.16342	-0.005341	-0.12222	-0.005188	-0.12741	0.067291	0.11673	0.16495	-0.159	0.007019	0.026093	-0.103	-0.040436	-0.090942	0.014191	0.028687	-0.42099	0.063171	0.007782	0.004425	0.046539	-0.053101	0.1033	0.18387	-0.00885	-0.036774
17.659	-0.023651	0.13321	-0.12924	0.00885	0.059204	-0.63995	-0.21316	-0.014496	0.090179	-0.014038	-0.087585	0.065002	0.024109	0.17929	-0.059814	-0.010986	0.079803	-0.08667	-0.14084	0.088654	0.057678	0.045166	-0.43182	0.04425	0	0.000916	0.018616	0.043182	0.11032	0.41534	-0.010223	-0.032349
